Coordinates
version=1
nRows=21
nColumns=12
inDegrees=yes

Units are S.I. units (second, meters, Newtons, ...)
Angles are in degrees

endheader
time	SC_y	SC_z	SC_x	AC_y	AC_z	AC_x	GH_y	GH_z	GH_yy	EL_x	PS_y
       0.0              -40.13          13.25          18.21          60.37         -6.904          6.733          46.43          40.58          82.47          124.1          39.75
  0.008191              -40.14          13.25          18.21          60.37         -6.904          6.731          46.44          40.59          82.46          124.1          39.76
   0.01638              -40.14          13.25          18.22          60.36         -6.905          6.728          46.44          40.59          82.44          124.1          39.77
   0.02457              -40.14          13.25          18.23          60.36         -6.905          6.725          46.45           40.6          82.43          124.1          39.78
   0.03276              -40.14          13.25          18.23          60.35         -6.906          6.722          46.46           40.6          82.41          124.1          39.79
   0.04096              -40.14          13.26          18.24          60.35         -6.906          6.718          46.46          40.61           82.4          124.1           39.8
   0.04915              -40.14          13.26          18.25          60.35         -6.907          6.715          46.47          40.62          82.38          124.0          39.81
   0.05734              -40.14          13.26          18.26          60.34         -6.907          6.711          46.48          40.62          82.36          124.0          39.83
   0.06553              -40.14          13.27          18.27          60.34         -6.908          6.706          46.49          40.63          82.34          124.0          39.84
   0.07372              -40.14          13.27          18.28          60.33         -6.908          6.702           46.5          40.64          82.32          124.0          39.85
   0.08191              -40.14          13.27          18.29          60.33         -6.909          6.697          46.51          40.65           82.3          124.0          39.87
    0.0901              -40.15          13.28           18.3          60.32          -6.91          6.692          46.52          40.66          82.27          124.0          39.88
   0.09829              -40.15          13.28          18.31          60.31          -6.91          6.686          46.53          40.67          82.25          124.0           39.9
    0.1065              -40.15          13.28          18.32          60.31         -6.911           6.68          46.54          40.68          82.22          124.0          39.92
    0.1147              -40.15          13.29          18.34           60.3         -6.912          6.674          46.55          40.69          82.19          124.0          39.94
    0.1229              -40.15          13.29          18.35          60.29         -6.913          6.667          46.57          40.71          82.15          124.0          39.96
    0.1311              -40.15           13.3          18.37          60.28         -6.914          6.659          46.58          40.72          82.12          123.9          39.99
    0.1392              -40.16           13.3          18.39          60.27         -6.915          6.651           46.6          40.74          82.08          123.9          40.01
    0.1474              -40.16          13.31           18.4          60.26         -6.917          6.642          46.62          40.75          82.03          123.9          40.04
    0.1556              -40.16          13.32          18.43          60.25         -6.918          6.632          46.64          40.77          81.98          123.9          40.07
    0.1638              -40.16          13.33          18.45          60.23         -6.919          6.621          46.66          40.79          81.93          123.9          40.11
